<svg xmlns="http://www.w3.org/2000/svg" viewBox="0 0 720 440" role="img" aria-labelledby="title desc">
<title id="title">Scene Studio — fictional research concept</title><desc id="desc">Illustrative demo figure, not an experimental result or actual product screenshot.</desc>
<defs><pattern id="grid" width="24" height="24" patternUnits="userSpaceOnUse"><path d="M24 0H0V24" fill="none" stroke="#164b50" stroke-opacity=".045"/></pattern><linearGradient id="panel" x2="1" y2="1"><stop stop-color="#ffffff"/><stop offset="1" stop-color="#f0eee5"/></linearGradient></defs>
<rect width="720" height="440" fill="#f0eee5"/><rect width="720" height="440" fill="url(#grid)"/>
<g font-family="Arial, sans-serif" fill="#164b50"><text x="32" y="35" font-size="12" letter-spacing="2">SCENE STUDIO</text><text x="688" y="35" text-anchor="end" font-size="10" letter-spacing="1">CONCEPT / DEMO</text><rect x="35" y="72" width="650" height="296" rx="13" fill="#fafbf7" stroke="#c9d8d0"/><path d="M35 113H685" stroke="#d9e3da"/><g fill="#afc3b5"><circle cx="54" cy="93" r="4"/><circle cx="68" cy="93" r="4"/><circle cx="82" cy="93" r="4"/></g><text x="110" y="97" font-size="11">Scene Studio / workspace</text><text x="662" y="97" text-anchor="end" font-size="9" fill="#2e7771">DEMO VIEW</text><path d="M181 113V368" stroke="#d9e3da"/><rect x="48" y="132" width="120" height="26" rx="5" fill="#2e7771"/><text x="62" y="150" fill="white" font-size="10">Overview</text><g font-size="10" fill="#75867d"><text x="62" y="184">Scenes</text><text x="62" y="216">Experiments</text><text x="62" y="248">Artifacts</text><text x="62" y="338">Workspace / 01</text></g>
<rect x="198" y="131" width="320" height="220" rx="7" fill="#e7e8e3"/>
<g fill="none" stroke="#c9c9c2"><path d="M201 290L365 220 515 287M201 322L365 252 515 319M255 347L426 268M317 347L483 275"/></g>
<path d="M283 270V190L352 157 427 191V270L352 304Z" fill="#aebbae" stroke="#6e8c7d"/><path d="M283 190L352 225 427 191 352 157Z" fill="#d6d9ca"/><path d="M352 225V304L427 270V191Z" fill="#90a8a0"/>
<path d="M352 224V138M352 224L452 266M352 224L257 265" stroke="#ae7d61" stroke-width="2"/><circle cx="352" cy="224" r="5" fill="#faf6d2"/>
<text x="212" y="152" font-size="9">SCENE VIEW / PERSPECTIVE</text>
<rect x="533" y="131" width="132" height="220" rx="7" fill="#f0f2ea"/><g font-size="10"><text x="546" y="153">INSPECTOR</text><text x="546" y="182">Object / 01</text><text x="546" y="213">Position</text><text x="546" y="265">Visibility</text></g><g fill="#dae3d7"><rect x="546" y="225" width="31" height="22" rx="3"/><rect x="583" y="225" width="31" height="22" rx="3"/><rect x="620" y="225" width="31" height="22" rx="3"/><rect x="546" y="279" width="104" height="22" rx="3"/></g><path d="M32 397H688" stroke="#164b50" stroke-opacity=".15"/><text x="32" y="421" font-size="10" letter-spacing="1.5">SJING / RESEARCH COLLECTION</text><text x="688" y="421" text-anchor="end" font-size="10">ILLUSTRATIVE ONLY</text></g></svg>